<mxfile host="Electron" modified="2024-03-26T11:47:51.429Z" agent="Mozilla/5.0 (Windows NT 10.0; Win64; x64) AppleWebKit/537.36 (KHTML, like Gecko) draw.io/22.0.2 Chrome/114.0.5735.289 Electron/25.8.4 Safari/537.36" etag="LCA-u9_KChoGSax3IK6d" version="22.0.2" type="device">
  <diagram name="Page-1" id="azYrxVaKSqTXmasLRoDE">
    <mxGraphModel dx="915" dy="688" grid="1" gridSize="10" guides="1" tooltips="1" connect="1" arrows="1" fold="1" page="1" pageScale="1" pageWidth="827" pageHeight="1169" math="0" shadow="0">
      <root>
        <mxCell id="0" />
        <mxCell id="1" parent="0" />
        <mxCell id="CdkMBlruaaTUAN_LEqlr-5" style="edgeStyle=orthogonalEdgeStyle;rounded=0;orthogonalLoop=1;jettySize=auto;html=1;entryX=0.5;entryY=0;entryDx=0;entryDy=0;" edge="1" parent="1" source="CdkMBlruaaTUAN_LEqlr-1" target="CdkMBlruaaTUAN_LEqlr-4">
          <mxGeometry relative="1" as="geometry" />
        </mxCell>
        <mxCell id="CdkMBlruaaTUAN_LEqlr-1" value="Sākums" style="strokeWidth=2;html=1;shape=mxgraph.flowchart.start_1;whiteSpace=wrap;" vertex="1" parent="1">
          <mxGeometry x="306" y="190" width="100" height="60" as="geometry" />
        </mxCell>
        <mxCell id="CdkMBlruaaTUAN_LEqlr-2" value="m - masīvs [1..7]&lt;br&gt;i - cikla mainīgais un masīvais indekss" style="verticalLabelPosition=middle;verticalAlign=middle;html=1;shape=card;whiteSpace=wrap;size=20;arcSize=12;labelPosition=center;align=center;" vertex="1" parent="1">
          <mxGeometry x="298" y="60" width="116" height="70" as="geometry" />
        </mxCell>
        <mxCell id="CdkMBlruaaTUAN_LEqlr-3" style="edgeStyle=orthogonalEdgeStyle;rounded=0;orthogonalLoop=1;jettySize=auto;html=1;entryX=0.5;entryY=0;entryDx=0;entryDy=0;entryPerimeter=0;" edge="1" parent="1" source="CdkMBlruaaTUAN_LEqlr-2" target="CdkMBlruaaTUAN_LEqlr-1">
          <mxGeometry relative="1" as="geometry" />
        </mxCell>
        <mxCell id="CdkMBlruaaTUAN_LEqlr-4" value="i = 1" style="rounded=1;whiteSpace=wrap;html=1;absoluteArcSize=1;arcSize=14;strokeWidth=2;strokeColor=#ff1f1f;" vertex="1" parent="1">
          <mxGeometry x="306" y="310" width="100" height="50" as="geometry" />
        </mxCell>
        <mxCell id="CdkMBlruaaTUAN_LEqlr-9" value="Jā" style="edgeStyle=orthogonalEdgeStyle;rounded=0;orthogonalLoop=1;jettySize=auto;html=1;entryX=0.5;entryY=0;entryDx=0;entryDy=0;strokeColor=#ff1f1f;" edge="1" parent="1" source="CdkMBlruaaTUAN_LEqlr-6" target="CdkMBlruaaTUAN_LEqlr-7">
          <mxGeometry x="-1" y="-14" relative="1" as="geometry">
            <mxPoint as="offset" />
          </mxGeometry>
        </mxCell>
        <mxCell id="CdkMBlruaaTUAN_LEqlr-6" value="i &amp;lt;= 7" style="strokeWidth=2;html=1;shape=mxgraph.flowchart.decision;whiteSpace=wrap;strokeColor=#ff1f1f;" vertex="1" parent="1">
          <mxGeometry x="306" y="420" width="100" height="100" as="geometry" />
        </mxCell>
        <mxCell id="CdkMBlruaaTUAN_LEqlr-11" style="edgeStyle=orthogonalEdgeStyle;rounded=0;orthogonalLoop=1;jettySize=auto;html=1;entryX=0.5;entryY=1;entryDx=0;entryDy=0;exitX=0;exitY=0.75;exitDx=0;exitDy=0;strokeColor=#ff1f1f;" edge="1" parent="1" source="CdkMBlruaaTUAN_LEqlr-7" target="CdkMBlruaaTUAN_LEqlr-10">
          <mxGeometry relative="1" as="geometry">
            <Array as="points">
              <mxPoint x="212" y="615" />
            </Array>
          </mxGeometry>
        </mxCell>
        <mxCell id="CdkMBlruaaTUAN_LEqlr-7" value="m[i]" style="html=1;strokeWidth=2;shape=manualInput;whiteSpace=wrap;rounded=1;size=26;arcSize=11;strokeColor=#ff1f1f;" vertex="1" parent="1">
          <mxGeometry x="306" y="570" width="100" height="60" as="geometry" />
        </mxCell>
        <mxCell id="CdkMBlruaaTUAN_LEqlr-8" style="edgeStyle=orthogonalEdgeStyle;rounded=0;orthogonalLoop=1;jettySize=auto;html=1;entryX=0.5;entryY=0;entryDx=0;entryDy=0;entryPerimeter=0;strokeColor=#ff1f1f;" edge="1" parent="1" source="CdkMBlruaaTUAN_LEqlr-4" target="CdkMBlruaaTUAN_LEqlr-6">
          <mxGeometry relative="1" as="geometry" />
        </mxCell>
        <mxCell id="CdkMBlruaaTUAN_LEqlr-12" style="edgeStyle=orthogonalEdgeStyle;rounded=0;orthogonalLoop=1;jettySize=auto;html=1;strokeColor=#ff1f1f;" edge="1" parent="1" source="CdkMBlruaaTUAN_LEqlr-10">
          <mxGeometry relative="1" as="geometry">
            <mxPoint x="352" y="380" as="targetPoint" />
            <Array as="points">
              <mxPoint x="212" y="380" />
            </Array>
          </mxGeometry>
        </mxCell>
        <mxCell id="CdkMBlruaaTUAN_LEqlr-10" value="i = i + 1" style="rounded=1;whiteSpace=wrap;html=1;absoluteArcSize=1;arcSize=14;strokeWidth=2;strokeColor=#ff1f1f;" vertex="1" parent="1">
          <mxGeometry x="162" y="445" width="100" height="50" as="geometry" />
        </mxCell>
        <mxCell id="CdkMBlruaaTUAN_LEqlr-15" value="Nē" style="edgeStyle=orthogonalEdgeStyle;rounded=0;orthogonalLoop=1;jettySize=auto;html=1;entryX=0;entryY=0.5;entryDx=0;entryDy=0;" edge="1" parent="1" source="CdkMBlruaaTUAN_LEqlr-6" target="CdkMBlruaaTUAN_LEqlr-17">
          <mxGeometry x="-0.8714" y="10" relative="1" as="geometry">
            <mxPoint x="556.8" y="469.5" as="targetPoint" />
            <mxPoint as="offset" />
          </mxGeometry>
        </mxCell>
        <mxCell id="CdkMBlruaaTUAN_LEqlr-17" value="i = 1" style="rounded=1;whiteSpace=wrap;html=1;absoluteArcSize=1;arcSize=14;strokeWidth=2;" vertex="1" parent="1">
          <mxGeometry x="550" y="445" width="100" height="50" as="geometry" />
        </mxCell>
        <mxCell id="CdkMBlruaaTUAN_LEqlr-28" value="Nē" style="edgeStyle=orthogonalEdgeStyle;rounded=0;orthogonalLoop=1;jettySize=auto;html=1;entryX=0.5;entryY=0;entryDx=0;entryDy=0;" edge="1" parent="1" source="CdkMBlruaaTUAN_LEqlr-18" target="CdkMBlruaaTUAN_LEqlr-27">
          <mxGeometry x="-0.8824" y="-10" relative="1" as="geometry">
            <mxPoint as="offset" />
          </mxGeometry>
        </mxCell>
        <mxCell id="CdkMBlruaaTUAN_LEqlr-18" value="i &amp;lt;= 7" style="strokeWidth=2;html=1;shape=mxgraph.flowchart.decision;whiteSpace=wrap;" vertex="1" parent="1">
          <mxGeometry x="550" y="530" width="100" height="100" as="geometry" />
        </mxCell>
        <mxCell id="CdkMBlruaaTUAN_LEqlr-19" style="edgeStyle=orthogonalEdgeStyle;rounded=0;orthogonalLoop=1;jettySize=auto;html=1;entryX=0.5;entryY=0;entryDx=0;entryDy=0;entryPerimeter=0;" edge="1" parent="1" source="CdkMBlruaaTUAN_LEqlr-17" target="CdkMBlruaaTUAN_LEqlr-18">
          <mxGeometry relative="1" as="geometry" />
        </mxCell>
        <mxCell id="CdkMBlruaaTUAN_LEqlr-25" style="edgeStyle=orthogonalEdgeStyle;rounded=0;orthogonalLoop=1;jettySize=auto;html=1;entryX=0.5;entryY=1;entryDx=0;entryDy=0;" edge="1" parent="1" source="CdkMBlruaaTUAN_LEqlr-20" target="CdkMBlruaaTUAN_LEqlr-23">
          <mxGeometry relative="1" as="geometry" />
        </mxCell>
        <mxCell id="CdkMBlruaaTUAN_LEqlr-20" value="m[i]" style="strokeWidth=2;html=1;shape=mxgraph.flowchart.display;whiteSpace=wrap;" vertex="1" parent="1">
          <mxGeometry x="550" y="680" width="100" height="60" as="geometry" />
        </mxCell>
        <mxCell id="CdkMBlruaaTUAN_LEqlr-21" value="Jā" style="edgeStyle=orthogonalEdgeStyle;rounded=0;orthogonalLoop=1;jettySize=auto;html=1;entryX=0.5;entryY=0;entryDx=0;entryDy=0;entryPerimeter=0;" edge="1" parent="1" source="CdkMBlruaaTUAN_LEqlr-18" target="CdkMBlruaaTUAN_LEqlr-20">
          <mxGeometry relative="1" as="geometry" />
        </mxCell>
        <mxCell id="CdkMBlruaaTUAN_LEqlr-26" style="edgeStyle=orthogonalEdgeStyle;rounded=0;orthogonalLoop=1;jettySize=auto;html=1;" edge="1" parent="1" source="CdkMBlruaaTUAN_LEqlr-23">
          <mxGeometry relative="1" as="geometry">
            <mxPoint x="609.9999999999998" y="510" as="targetPoint" />
            <Array as="points">
              <mxPoint x="760" y="510" />
            </Array>
          </mxGeometry>
        </mxCell>
        <mxCell id="CdkMBlruaaTUAN_LEqlr-23" value="i = i + 1" style="rounded=1;whiteSpace=wrap;html=1;absoluteArcSize=1;arcSize=14;strokeWidth=2;" vertex="1" parent="1">
          <mxGeometry x="710" y="555" width="100" height="50" as="geometry" />
        </mxCell>
        <mxCell id="CdkMBlruaaTUAN_LEqlr-27" value="Jebkurš&lt;br&gt;Taustiņš" style="html=1;strokeWidth=2;shape=manualInput;whiteSpace=wrap;rounded=1;size=26;arcSize=11;" vertex="1" parent="1">
          <mxGeometry x="430" y="680" width="100" height="60" as="geometry" />
        </mxCell>
        <mxCell id="CdkMBlruaaTUAN_LEqlr-29" value="Beigas" style="strokeWidth=2;html=1;shape=mxgraph.flowchart.terminator;whiteSpace=wrap;" vertex="1" parent="1">
          <mxGeometry x="430" y="800" width="100" height="60" as="geometry" />
        </mxCell>
        <mxCell id="CdkMBlruaaTUAN_LEqlr-30" style="edgeStyle=orthogonalEdgeStyle;rounded=0;orthogonalLoop=1;jettySize=auto;html=1;entryX=0.5;entryY=0;entryDx=0;entryDy=0;entryPerimeter=0;" edge="1" parent="1" source="CdkMBlruaaTUAN_LEqlr-27" target="CdkMBlruaaTUAN_LEqlr-29">
          <mxGeometry relative="1" as="geometry" />
        </mxCell>
      </root>
    </mxGraphModel>
  </diagram>
</mxfile>
